<?xml version="1.0" encoding="UTF-8" standalone="no"?>
<!DOCTYPE svg PUBLIC "-//W3C//DTD SVG 1.1//EN" "http://www.w3.org/Graphics/SVG/1.1/DTD/svg11.dtd">
<!-- Created with Vectornator (http://vectornator.io/) -->
<svg height="100%" stroke-miterlimit="10" style="fill-rule:nonzero;clip-rule:evenodd;stroke-linecap:round;stroke-linejoin:round;" version="1.1" viewBox="0 0 949.469 1310.14" width="100%" xml:space="preserve" xmlns="http://www.w3.org/2000/svg" xmlns:vectornator="http://vectornator.io" xmlns:xlink="http://www.w3.org/1999/xlink">
<defs/>
<g id="Layer-1" vectornator:layerName="Layer 1">
<path d="M403.818 1194.86C372.94 1210.4 330.943 1205.2 300.715 1200.92C148.988 1179.45 126.179 1109.16 102.374 970.636C91.1196 905.145 110.897 841.175 120.544 778.012C122.986 762.026 141.83 718.716 131.869 702.363C124.12 689.641 93.4776 710.864 86.0999 714.89C49.8825 734.652 25.9623 712.478 21.9801 673.18C15.3718 607.966 58.6492 491.491 132.901 476.125C160.321 470.45 177.27 509.584 183.065 506.978C184.493 506.335 226.249 391.829 235.679 377.477C291.558 292.435 366.774 281.273 458.578 259.061C496.763 249.822 545.317 234.087 584.692 243.652C616.358 251.344 640.176 263.362 667.463 282.01C694.628 300.576 744.633 341.77 750.018 375.902C759.452 435.7 744.355 515.369 727.572 572.464C722.086 591.128 707.299 619.847 710.423 639.647C715.607 672.507 756.52 685.054 780.031 698.037C820.635 720.46 873.376 779.956 860.989 830.948C846.841 889.187 765.624 903.717 714.627 888.727C692.895 882.339 644.934 865.986 624.266 885.029C607.458 900.515 637.661 930.2 611.392 948.272C596.124 958.775 551.825 938.394 543.117 957.82C536.326 972.968 597.526 972.905 576.684 992.107C560.173 1007.32 511.887 994.499 485.063 1019.21C470.323 1032.79 482.8 1074.49 482.121 1091.09C479.861 1146.3 449.723 1171.74 403.818 1194.86Z" fill="#cea542" fill-rule="nonzero" opacity="1" stroke="none"/>
<path d="M463.599 513.318C478.993 512.945 450.379 511.393 441.91 515.516C419.394 526.476 386.762 542.024 378.031 568.442C359.079 625.783 439.515 675.348 487.199 665.48C546.24 653.262 555.518 588.31 531.262 543.858C522.735 528.232 498.669 509.61 481.266 508.898C473.023 508.561 452.586 502.701 456.538 509.943C457.787 512.233 460.991 513.381 463.599 513.318Z" fill="#fffdf7" fill-rule="nonzero" opacity="1" stroke="#000000" stroke-linecap="round" stroke-linejoin="round" stroke-width="1.245"/>
<path d="M454.875 575.702C429.352 597.794 454.113 634.702 479.116 611.665C502.327 590.279 479.444 554.435 454.875 575.702Z" fill="#000000" fill-rule="nonzero" opacity="1" stroke="none"/>
<path d="M558.027 869.975C577.722 834.311 675.691 845.6 703.23 865.633C712.899 872.667 733.343 862.615 744.135 871.421C744.725 871.903 755.663 880.562 753.983 882.11C753.51 882.545 650.608 865.832 635.207 869.02C627.216 870.674 618.384 870.465 610.395 872.118C602.347 873.784 557.169 871.528 558.027 869.975Z" fill="#a57f24" fill-rule="nonzero" opacity="1" stroke="none"/>
<path d="M80.8151 567.591C42.1843 599.138 110.97 510.641 136.96 527.719C169.855 549.333 145.539 587.006 129.827 601.482C126.178 604.844 120.938 631.975 116.244 631.782C107.94 631.443 125.844 577.484 92.5247 608.184C76.9121 622.568 99.4613 680.466 81.368 679.725C72.8428 679.376 80.2777 637.789 73.1172 630.017C63.6062 619.694 34.2035 680.474 42.1442 632.864C45.0137 615.659 55.9827 588.494 69.1418 576.37C70.8806 574.768 86.1534 557.456 86.3275 558.56C86.8772 562.043 83.5469 565.36 80.8151 567.591Z" fill="#a57f24" fill-rule="nonzero" opacity="1" stroke="none"/>
<path d="M163.392 473.633C162.802 488.047 179.033 507.161 180.501 521.646C182.953 545.839 176.724 572.272 181.582 595.746C182.155 598.512 184.068 602.019 187.491 602.159C225.752 603.725 227.888 453.487 233.824 425.088C238.967 400.485 243.519 345.195 276.458 338.378C289.407 335.699 276.722 366.343 296.322 355.648C322.059 341.604 330.413 306.527 356.514 292.285C399.061 269.069 446.498 288.426 490.758 279.266C512.638 274.738 531.47 256.519 553.545 253.036C576.517 249.412 622.622 257.372 645.707 262.98C649.849 263.986 665.165 274.062 665.823 274.089C674.499 274.444 687.442 229.238 690.515 223.672C713.371 182.284 753.044 94.2088 714.005 51.8377C688.786 24.4659 670.313 76.6098 660.983 90.8093C659.758 92.673 657.342 100.144 652.516 96.6341C643.207 89.8622 654.588 49.5502 642.632 36.5737C601.771-7.7753 593.316 83.9254 566.683 82.8353C560.278 82.5731 542.544-13.1452 487.311 11.7022C456.003 25.7864 471.039 88.9906 432.523 93.8006C390.872 99.0021 381.938 43.8345 337.598 50.8303C302.654 56.3436 332.882 109.649 304.187 113.233C256.95 119.132 289.555 37.7606 247.405 43.0244C189.001 50.3181 227.814 141.063 193.158 162.173C156.82 184.306 136.975 83.3505 103.806 133.83C79.3366 171.07 122.544 196.206 114.819 216.565C102.132 250.001 59.3195 233.402 51.8646 246.901C38.1453 271.745 78.6375 286.25 86.5608 303.863C96.245 325.39 90.7225 352.957 89.7796 375.993C88.5064 407.099 94.5841 433.647 100.625 462.835C102.072 469.827 99.5276 478.942 97.6464 485.341C96.8497 488.052 92.434 493.356 95.2565 493.472C111.002 494.116 135.169 467.906 158.99 485.234C171.958 494.668 183.722 493.207 183.059 509.409C182.919 512.831 182.639 519.677 182.639 519.677C182.639 519.677 199.147 400.516 190.339 390.956C178.488 378.094 144.865 466.703 127.238 465.982" fill="#16afca" fill-rule="nonzero" opacity="1" stroke="none"/>
<path d="M704.783 630.613C710.596 633.903 704.101 616.134 704.448 607.664C704.975 594.794 711.645 585.12 721.014 576.488C745.923 553.538 797.164 563.548 804.239 597.733C812.731 638.768 782.346 651.768 746.938 659.095C721.934 664.27 692.317 623.557 704.783 630.613Z" fill="#ffffff" fill-rule="nonzero" opacity="1" stroke="#000000" stroke-linecap="round" stroke-linejoin="round" stroke-width="1.245"/>
<path d="M746.587 621.577C739.863 612.238 744.923 584.63 760.934 589.336C775.039 593.482 772.898 623.175 754.369 622.417C753.186 622.368 747.401 622.708 746.587 621.577Z" fill="#000000" fill-rule="nonzero" opacity="1" stroke="#000000" stroke-linecap="round" stroke-linejoin="round" stroke-width="1.245"/>
<path d="M395.828 457.667C402.937 452.105 410.031 446.424 417.838 441.893C434.217 432.388 462.651 424.89 481.987 427.844C498.394 430.35 568.058 493.976 574.093 469.132C577.14 456.59 568.18 447.501 560.719 439.404C527.399 403.239 455.396 389.052 410.665 413.46C392.332 423.464 370.592 477.411 395.828 457.667Z" fill="#16afca" fill-rule="nonzero" opacity="1" stroke="none"/>
<path d="M710.756 529.441C694.532 525.802 731.398 521.428 731.406 521.428C739.99 521.327 817.616 539.757 815.597 526.958C812.293 506.022 741.301 488.891 723.022 497.114C716.87 499.882 687.613 513.016 698.94 525.31C701.609 528.206 714.79 530.346 710.756 529.441Z" fill="#16afca" fill-rule="nonzero" opacity="1" stroke="none"/>
</g>
</svg>
